<mxfile host="app.diagrams.net" agent="Mozilla/5.0 (Windows NT 10.0; Win64; x64; rv:134.0) Gecko/20100101 Firefox/134.0" version="24.8.3">
  <diagram name="Page-1" id="s8xztOO7BumkGDskIjR9">
    <mxGraphModel dx="1687" dy="909" grid="1" gridSize="10" guides="1" tooltips="1" connect="1" arrows="1" fold="1" page="1" pageScale="1" pageWidth="827" pageHeight="1169" math="0" shadow="0">
      <root>
        <mxCell id="0" />
        <mxCell id="1" parent="0" />
        <mxCell id="BGrVTVoPzo42Mm0vaw1O-30" value="" style="shape=image;verticalLabelPosition=bottom;labelBackgroundColor=default;verticalAlign=top;aspect=fixed;imageAspect=0;image=data:image/png,iVBORw0KGgoAAAANSUhEUgAAAU8AAAD1CAYAAADQ63dVAAAgAElEQVR4Xu2dB3gUVdfH/7wvryBFQJAWkC7SCYQOAgIiTQJBKQJBWqQZ0CjSpDcJAqIgUqQJSDOIEDEiRXrvUgJSAgYkEjoKfHxzZrPJJmyyc2d2Z2dmz30eHrI7t5z7O3f+e+e2SfdECuDABJgAE2ACQgTSsXgK8eLITIAJMAGZAIsnNwQmwASYgAoCLJ4qoHESJsAEmACLJ7cBJsAEmIAKAiyeKqBxEibABJgAiye3ASbABJiACgIsniqgcRImwASYAIsntwEmwASYgAoCLJ4qoHESJsAEmACLJ7cBJsAEmIAKAiyeKqBxEibABJgAiye3ASbABJiACgIsniqgcRImwASYAIsntwEmwASYgAoCLJ4qoHESJsAEmACLJ7cBJsAEmIAKAiyeKqBxEibABJgAiye3ASbABJiACgIsniqgcRImwASYAIsntwEmwASYgAoCLJ4qoHESJsAEmACLJ7cBJsAEmIAKAiyeKqBxEibABJgAiye3ASbABJiACgIsniqgcRImwASYAIsntwEmwASYgAoCLJ4qoHESJsAEmACLJ7cBJsAEmIAKAiyeKqBxEibABJgAiye3ASbABJiACgIsniqgcRImwASYAIsntwEmwASYgAoCHhXPHTt2qDCJk3iCQM2aNT2RLefJBHyWgEfFM126dKhbt67PwjVKxbds2YInT54YxRy2gwlYgoDHxZNvWu+3E/oRYz943w9sgbUIsHhay59Oa8Pi6QNO5irqToDFU3fk+hfI4qk/cy7R+gRYPK3vY7B4+oCTuYq6E2Dx1B25/gWyeOrPnEu0PgFDi+eSJUus7wGVNezQoYPilCyeilFxRCagmIChxZNu+uDgYMWV8ZWICxYsEJo9Z/H0lZbB9dSTgOHFk5fYPN0cRMVQNL6eDZDLYgJmJcDiaULPiYqhaHwTImGTmYDuBFg8dUeuvUBRMRSNr91CbTlMnz5dWwacmgkIEOjXr59A7KSoLJ6qsHk3kagYisb3bu0gL616//33vW0Gl+8DBD777DOh+QNHJCyeJmwgomIoGt/bSMxmr7d5cfnqCWhpayye6rl7LaWow0Xje61iCQWbzV5v8+Ly1RPQ0tZMLZ4jR45UT80DKYcPH+6BXJ/OUtThovF1qUQahZjNXm/z4vLVE9DS1kwtnlTx0aNHqyfnxpTDhg1TPXYiaoaow0Xji9rj7vhms9fd9ef89COgpa2ZXjyNsg5UixNEm4poWaLxRe1xd3yz2evu+nN++hHQ0tZYPN3kJy1OEDVBtCzR+KL2uDu+2ex1d/05P/0IaGlrLJ5u8pMWJ4iaIFqWaHxRe9wd32z2urv+nJ9+BLS0NRZPN/lJixNETRAtSzS+qD3ujm82e231P44lvb/Ettp9MKNDGXcj8Zn8/toUjgUIRlj9F8TqfHwJen+5DUXfHCmUVktb8xHxPIZFPT/Hb3Xew9edyoo5RWFsLU5QWERiNNGyROOL2qM2/oMHD5AxY8ankqdu7zVsnDgU3511SKLYp5T2G+CdgWiQW43FT5ddrO0YDLRndmw8SvWJxftjw9Cjdgbd7Ly2cSK+wTtJdqRRtWOLeuJzuLoH9GJM9+RB+H/dCY53ZPS0WpJ0LsD20OJyTZTZLEW8tA2zw4dg2LPjETtB+csOtdwbPiGeV6N6oeu4kzh9pSFWnRqC8mruHRdptDhB1BzRskTji9qjNr6/vz8CAwMRGhqK7NmzK/hxiMa0Wk2wp+UQNJIF8BqiVkThmZofYcKQRsiTpiGUVjqha8F2JNyXgmZT+hKIqP4NgstR0qNYP/M8ms5ehS7UoCJDkC4iEE9mNZE+6GdnSrFJq1KXd85HFBqhSw2/NKLpZXskQtJFIPDJLBAxe0hZH2U2J6Q+MBIlhr2IbevecdEWksrTcm/4gHhexcoOrbGj3UAgLAzPrziNoRUI3mHM67Qffh1jsHjxGZlm/bBF6CpdOzyvE9b4heOTxrbb8eqGUQi73BKL6GIqQYsTBO9i4ZPh9bRNpC5ZsmTB3bt3UaZMGbz11lto27YtSpYsmUb9UgrgbZzcMBq9O21Cy6i9CK1APg3HpkQjSqBj+CdonOcqNowKwdAvpFdh12yMlyt1RPgnjSF9ibAE30vOT/AvxQ2D/WupVSBsUVdUkAWxBE4MfQJZH3EFX7/qhzWdYrHuHamdPCWejkKtxc68WOe0TrZKJheb1Nu0vR3PQkhiu3buK3cyTst2ZeJJ916Szbb6VZb9kXQPJ36Ongbb72MobP1W10HLvWF98YxdjnZBe9B7wwjknRWIpnfDEf1JRYkqOa8f9ob1wsCAAsCh2Riyoy1WbumBPHMaovwvPXF02VvIi1gsbxeE9R1XYn7zfGmKZ7169ZJdz5s3r9PH0pSZ0KMrxVUS/Pz80KNHD3zzjfQImkYgYcqVK5cco379+ti0KUlSUiYrUKAA0qdP77J46h069hBdJnARoUiRIjh//nxiLGIwcOBADBgwIJU1s856j39iTsP8WN3hT6zv+gT7vtuKxKf6Q99j4j/BWP9ZHdzaOA/jpDFJ9BmFJmX80azMWXzSfyMKt6oi91IO/ToDRXttQQ9MQaUJ1zCwFbURCsXwStsA5EspnrGR0uN5f2Sbtx/hr2RB7LymqHt5LE4N85fSuNHOBllx0mmdmkhtM6V4pt6mqTbKeql62a5MPJPbnDJNis8snkl3nKtfBVfXKac/v2uLNvv6YcOk2shydS5eq7EDodvnolk+Aj8FuQ8swmh/6faha3n3YAA9RtDfZX5Gt6PfoS2kf232od+GSaidJXU1IFu6dOniUk/i4+NB/5QER2FxjE/fFy5cOPGr69ev486dO0qy1C2Oo32pFRoTE4NHjx45vUwnK/Xt2zfFNeeP3pEh6bCw4W0sfTML/lw3GH3nnbKliz2I1QjFGbknkjwttYtyfU6ict3iILfGHlyN54ZcQWTz9VIbmYes/p0wZNW7qJRoga3nOQ2t4U+qdScaz1T9HKMH1kXmLYMxIbo8WjdrjrrFKTf32Sm34VTr5Ew8U2nTmsSTOtbijNO23QPiKflky4/rsPpIcXw8rpn0g+c6KNGQ1HKxeM9zPyaVew0T4I/aRTNLDK7i8A9nUGXpMaxodyjFmIujM6/hpx6tMLfBSnmAvc3B/vh5Yi1QDqmC1PHd6KIOt8cnoSLBUhJiY2NBEzquAsWhuEoClf348ePEqCNGjHgqGfWAyc4zZ86gePGUD1/ORGk/hhfuiP+t+R1Dc69F39eWItfYdjbR+3MtBi4si7VOxJN6NCUiG2FN7yR5fL5sA6md3JXayC5cQBz2z43AITTGJ2t6o3JCzzOy0RrYkxSq/gYqSGOvd89tw/q1y7Cv6BBMbEG3rPvspDqkXidn4uk4jphcoNT3PNUxTtt2D4gn9mNGw6V4OKI3utcumub9am94oveSY4O1tnju+wQvdr6GEZNbJv0K7ZuODoc64viqHBiZbMA6uTPv7fwYjcKzowXWIj4sChNqZEpTH7Q4QYnwJHOaoFDraZvSuty/fx+ZMiUxffnll9GmTRsEBQWBJpKc7xx7WpT2Ta+C1jMb4Lt9E1Bj7wfI0et5bD4xRB4T2zehNBqtDcFeJ+JJ/g1o+wwWXhyFAKdG/4VjkWvxxQcjkHvhRYwKSDnmmTzRvZUd4LczBDcm13UqnmrtxJa06qSPeHrGdrXiGYI8e8kf0qjzms6oHvgsZtknna7MwesNr2Jigv+VtEUt94alxXPP0ALo+n8rsWdcdSTepnEL0bxYBNqf6IGtfqn/SuPeLgxu1AYL0Rkro8ahetraKTyJo8Sx7urlamkgWux0lZbsovHe7t27yzPu9p5m6vaSgAVgBqrgxQR/XC/6Kib1eBs1A15EprjfMf69QPx4TfpbKvx60QzwO9YIU2XxvIddgxsheEsmvBjQCwvGB2Dvhz0w4vT/wTYyXBq9FkxD9V2hCJ55IsH0e7iYuzkiPh+EUjnTFs+nJ4zcZOcnpbAg1TppEc8rWB0ajItvR6F/VUdPuZFxmraTePbAnoalkvEvvyL5UqXkveU4/D4+GI2W/4NSktOKNK+CK/3j0McunjzmmeRIVze9q+t/n96MC5mqwb/Asw6t42+c3nwBmaoVwr3d15Gr3kt4Xr5K3zt+vo9VHTNhfu1LWP5uATjm4EwUXNniSkhErouWJRpfxBYtcWliiCaIUk6WpW7vfcQc3I3omw6l5i+Pei/ZPCh7UfL5kSsJH/LnR/67mVDQ3+a/+zEHsZsSZyuOatJ3Uma2z3LIhuLV/JEzzvE76evE/G1l3ytUDw7FJRmSbLbdvXbed1Gnk3g5oY2nbMPJP1P9k+JuxoBsk1Hpj7XolISPKLmVceq2k21HpDUL9pDEP8lGm88cP0sOxuYEB2eThnUyR99Luoc3D0C2ObURuzjI5f1qL1XLvWHpnqeWGxsxK9AuYDFa/L4Gb+dwnZMWJ7jOPXkM0bJE44va4+74ZrNXrv+Nb9Gy1DjEvT8X2z6q7m4kbs8vZkU7jL44FhM+KAYFzdvt5bs9Q+l+fbdxP+zoGIUjg+SFuIqClrbG4pka4gdXceLIffhVLSz1SVwHLU5wnTuLpygj/ePfxPk9p3Atd0lULaykxehvoWOJD66eQGzG0jCBqcpAyffrBaBQeZTO8/SutdQy0XLfsngqc43LWFqc4DLzFBFEyxKNL2qPu+ObzV5315/z04+AlrbG4ukmP2lxgqgJomWJxhe1x93xzWavu+vP+elHQEtbY/F0k5+0OEHUBNGyROOL2uPu+Gaz19315/z0I6ClrZlePJ9eSK0feMeSoqOj+TUcbkKvpUG7yQTOxkcIaGlrphbPCxekAWIDhUKFCulijajDRePrUok0CjGbvd7mxeWrJ6ClrZlaPNUjM3dKUYeLxvc2HbPZ621eXL56AlraGouneu5eSynqcNH4XqtYQsFms9fbvLh89QS0tDUWT/XcvZZS1OGi8b1WMRZPb6P3ufK13BssniZsLqIOF43vbSRkb9asWb1tBpfvAwRu376teqKXxdOEDURUDEXjexuJkqPwvG0jl28dAs7eo6WkdiyeSigZLI6oGIrGN1h12RwmYEgCLJ6GdEvaRomKoWh8EyJhk5mA7gRYPHVHrr1AUTEUja/dQs6BCVifAIunCX0sKoai8U2IhE1mAroTYPHUHbn2AkXFUDS+dgs5ByZgfQIsnib0sagYisY3IRI2mQnoToDFU3fk2gsUFUPR+Not5ByYgPUJsHia0MeiYiga34RI2GQmoDsBFk/dkWsvUFQMReNrt5BzYALWJ8DiaUIfi4qhaHwTImGTmYDuBFg8dUeuvUBRMRSNr91CzoEJWJ8Ai6cJfSwqhqLxTYiETWYCuhNg8dQdufYCRcVQNL52CzkHJmB9AiyeJvSxqBiKxjchEjaZCehOgMVTd+TaCxQVQ9H42i3kHJiA9QmweJrQx6JiKBrfhEjYZCagOwEWT92Ray9QVAxF42u3kHNgAtYnYAnxXLdunSk91axZM1V2i4qhaHxVRnEiJuBjBCwhniQOgYGBpnJdRESE+nenSPV98uSJ4vqaVTyJEQdlBMzW/pXVytixLCOeImJiBJdoETTRtKLxjcCHbCC733zzTaOYY1g7VqxYIfRjatiKmMwwFk8vOUyLoImmFY3vJSRPFWtWu/Xmx5z0Jm4rj8XTO9zlXpXa3rJoWtH4XkLC4qkSvFn9q7K6hknG4qnKFTHYPu8CCnWthQIu0t86vg6/oQ6alXkuWUwtDV40rWh8VUgEE925cwfnz59H2bJlU01pRLsFq5kiuvZ246x863HSRlmv1BYXz5s4umYZdsTmRc12LVEumyPWS9g6az1+Ryk0DXkFBYWIRyIkXQQCn8xCExfpoqfVQjAWYHtocRZPBwLXr1/HCy+8gIYNGyIkJESe8EufPr0CRgl+y1sT7VqWg82l9N0fKCLsx9ScZ9x2w+IpdKN6NLLFxTMa02rVweybRVF/6npMb+ignhe+RO3qY3A29g3MUyCCyb3A4qm1VV67dg158uRJzKZSpUqgpVvNmzdH1apV5e+d96iIfVf8ULMWPl+yEm8WopjK/aHMbuO2GxZPZR7UI5YPiGcwYlu+hK27Xse3q9uisEw1HgdHdseA+Kx4OPUZDLWL5/mNmBpxNJF7ucD+aGBLADheK5cevzc8mtDzPI+NU8+iWP8GCXkn/8w9T+fNOD4+Hvny5cODBw+SRciYMSPatWuHPn36oEqVKk7GhUkox+DfLrdx6pkpWDKLuKcQz1T9KPlm+Q08n3MLtshuLofA/sVwdmoE6GP+ul3wln926S8ST2O2GxZPPWRRWRk+IZ6Y/DEOB41FxW278F4R0s6f0bvZMjSZXAETapywiWf8fiwJG4e56Yqhcg4pzo39OPukGwaHd0Dl7H/g5+5hmJhw7Ub6szg6PheGy6KbsteT/LNVxfPRo0eIiYmB/X8SwdjYWFkMr169ChrTpEfzlP+TaNK/tEL27NkxevRo9OvXL1XxLP3D+/ht2CSUnvsTRlXemTSMkqYfJd8U/gr/7ZAbWR7lwLmftyL7268h9+kHeIT92H6tGxav6YAiCeJpxHbD4qlM2PSI5RviueAHVPm6Efr7rcCeUKmnsbg5PjgyGHN77sUbJRLEc88wFHr3HyyN+hQ1c0ro43bgo0btcWvcIXxVYiGq1juK4YfmoJl0LW7HR2hU6ybGmlw87WJn/99RDB8/fixP6Midbof/7WLprHFSrzFv3rxI+X+WLFmQK1cuZM6cWf7f/rlHjx6Ijo5OzIrGPLt3747x48eDBDT1x/YxKH1mO5r89hreWdUZC3/MiU/tY9Bp+fH1XZLIDkG27VH4VHLy7iEFUT2yPbaTz7EO3SvORf0jq/F2DlvPEwZsNyyeesiisjJ8RDy3I/TJZ6jc4TpmbOiKnY3b4v+W7Mf76aahll08I0OQLiIQT2YlTQFFhqTD13Xi8H3OQUg3pjTObA+FbdrHsXfpnZ4njRlSD+7mzZvyv7T+pp06/v7+yeKSODqGrFmzIlu2bPI/Ei7H/5X8TYIoGmhsc+/evciUKRM6deqEzp07o2bNmonZuBLP0Od34eNG/fCfGaGIq/6bbRglLT923J1soo+eCkqcGJrgc7tgSm2luMPfBms3LJ6ircxz8X1HPKUbYmqV+oisVgfP/tEE4es6oXi0g3juGYpCvR5hWdQE1HheAv73TunGbIf0My9gDKRrQVcx8/BsNJWu/b3zYzSqeQNjEnueQ1HytCTGJVJek0bPXMy2O+vVUe/u8uXL8iNwyt4hfbancdYsSPhS/iPxDAsLk3t8OXPmTOz50eeUPUXPNbWnc27RogWOHTuGSZMmoU2bNk9FcCme0i9Z9KJmCF78CA9+LmzzR1p+rPr0kIpL8TRYu2Hx1LOFpl2WD4kncO7bFni141E0+ekgZjaWBjYdxfPGPiz+YBzmP1MSVeQxz7049W8XDJ7cEQHYh6mdQ/Gj3yvytax502PnlGvofZ7GPM/hp67tMejOq3i9GF2Lx5r+/4cRCZNQzsSzTp062LZtm1PP0KNrgQIF5GU7jv/bH4UzZMiAQYMGYenSpbLw2R+B7f+b6eYiBgEBAfJjvnK7bRNG9Ngur/6S/Dbs9SoYs6cn1hPztPyYQ414GqfdpHYr8zpP7wiqxcUzHgeWRgJN2qMSTaLGH8DSOadQsrvj5zhUD2skTRJI4Y8ohK86nOiJCkFhaCRfoKRLMefXy/Lffq8GoeSpaORo/3Q6v1dfRa5f41A8IU9KFylJbHvZAFtYuVJaYiPt2Y6KipJFsnDhwvL39v9dNQXRm0U0vqvy9bru3O4/EBW+CzntPpTdFo5VhysgyKUfKW10Mt/MiauOMNnJjm3FmO2GxVOvlqesHIuLpzII3oilRdBE04rG9wYPZ2Wa1W69+TEnvYnbymPx9A533tuugDuLggJIdBNrOCdBWQkcy+mPu3Q4hfKDIQUZanWq0vRK4wma79HoWmwWTSsa36MVF8jcrHYLVNEtUZmTWzAKZ8I9T2Fk7kmgpcGLphWN754aas/FrHZrr7lYDsxJjJe7YrN4uoukYD5aGrxoWtH4glXxWHSz2u0xIKlkzJz0Jm4rzzLiSfuhzRSWLVvG53m6cBiLgrIWzZyUcXJ3LEuI56pVq9zNRZf8goKCVJUjerOIxldllAcSmdVuD6BIM0vmpDdxC/U8vYPOe6WK3iyi8b1Xs+Qlk90tW7Y0ijmGtWPNmjWqn2IMWykTGGaJnqcJOLvVRFExFI3vVmM1ZLZ+/XoNqX0radOmTX2rwgaoLYunAZwgaoKoGIrGF7WH4zMBXyTA4mlCr4uKoWh8EyJhk5mA7gRYPHVHrr1AUTEUja/dQs6BCVifAIunCX0sKoai8U2IhE1mAroTYPHUHbn2AkXFUDS+dgs5ByZgfQIsnib0MYnh9OnT8frrr6N48eSvNHZWHRZPEzqZTTY8ARZPw7voaQNJDCtWrCifwk6v6h0+fLj8ObXA4mlCJ7PJhifA4ml4FzkXTzoMi16vMXLkSBw6dAiBgYH44IMPULt27acSsHia0MlssuEJsHga3kWpi6f9yi+//IKxY8di8+bNqFevntwTpf/tgcXThE5mkw1PgMXT8C5yLZ72GCSekydPxo8//ojq1atj4MCBco+UxdOETmaTDU+AxdPwLlIunvaY9BhPj/P0WE9jofT54cOH8vuSODABJuAeAiye7uGoay5Ke5I0oUQ90fnz58uz8kOGDEHHjh1ZRHX1FhdmVQKGF8/nnnvOquxV1+vWrVtCp+iQ2Hbp0gV0hii9zrhPnz549913U33lr2rDOCET8CEChhbP+/fvm9oVBw4cQPny5T3S03v22WcVs7H3VGNjYzFx4kR89dVXyJ49uzwmyiKqGCNHZALJCBhaPM3sqzt37qBIkSLyu9hnzpyJgIAAr1Un5WM+ieiXX36JL774Qrapf//+CA0NlQWVAxNgAsoIsHgq46QqVnR0NHr16iUvIerbt6+8hMgbApXaGGl8fDymTZuGqVOnyvUjG+mRPm/evKrqy4mYgC8RYPHUwduLFy/GgAED5DHGKVOmoE2bNjqUmlSEqwmmBw8eyI/y9EhPgkqP8vRIzyKqq5u4MJMRYPHUyWEkSh9++CHmzJkjb6mkven0SK9HcCWedhvsIkqP9DExMaCX6tEMvZL983rUg8tgAkYiwOKpsze2bduGHj16yOJEj/E03ujp9ZdKxdOO4tGjR6DeMu1aOn/+vLy8ibZ+li1bVmdaXBwTMC4BFk8v+IbEacKECbI4vfzyy/KEEu0I8lQQFU9HEaXdSo77510dQuKpOnC+TMBoBFg8vegRxwml7t27Y/z48R6ZUFIrno5oaLcSjYnu2rVLHnagnqjj/nl3Y7x69aq7s/Rqfnny5PFq+Vy4+wmweLqfqXCO9gklenynCSUaa3RncId42u2hlQPUE7UfQkJjog0bNnSnuXJeZDMt6LdCoCEaOgWLg7UIsHgaxJ+OE0p0yDE9yrtrQsmd4mnHRT1Q6ona98/T4zwdQuKu4Amb3WWbaD5Wqoto3a0cn8XTYN61TyjRRA0JUlhYmOYJJU/evPZDSGhslCaU6HGees5aJ8E8abPeLrdSXfRmZ+TyWDwN6B3HCSVaJkS9UGeHHCs1XY+bl8ZvaQKMhiCox5zaISSdOnWS15C6mrnXw2al/LTGs1JdtLKwUnoWTwN70z6hRIcd04TSpEmTVE0o6Xnzks20a4nWs+bKlUvuidr3z588eRKlSpWSVxjs3bsXWbJkSZW+NptvI+bITWQrXwBZDeBfbXUxQAXYBKcELC6eN3FhfzSuZymIsiVzI4OMgL6LR/bKhZDNJI2CTkOiHUrUI6UJJVp3KRK8cfOmPISERHT//v3yyU4UaJfVihUrVIvnP9dO4TwKo2Rum1eTh0iEpItA4JNZaIJ/cO3UMVy6kxQjS8GyqaQToao8rjf4K7eOY6olYHHxpJuoLZbW7IYf103BK/K5F443llps+qejCaVBgwbJ2yhpdpse5ZXu/PHmzeu4f57+dgzUk6YxXWfBlc3R02ohGAuwPdTZ20MdfSz1hGuVwLi/q6Oo7P94ZKk+Gl8Pb4MiOp2D4qou+rcmLtEdBHxAPMcg9o1zQJ3fMD+sOHIkE88biN4Wh5y16XsKjp+lv4/cR6ZM53Aulq7lRZnaORG37Tjo43NFA1A+f0Z3+EAoD5rlph1K9HhM44off/yxy8kZI9y8/fr1SzzFyV5hmlSKiopyul7Ulc1PieeNaGw7LjtKctV5LCrxW0LP0yaeJ4Y+wawmdHEXBuergUtf3sei1sCVI6dxLxMQG3sryaeOeVF2ZWqjuK2BqAqu6qIqU07kdQI+IZ6lFwVh3sBNeHf3cvQqsNnhkS5lL9Txs/R32XXI9dp+7Dz0LOJOZUaHxU1xdfAKHEIM/qn8FX744lXk9IIL6fE9PDxcXm9pP/IurQXr3r55acw2KCgIdIhzylCjRg15KKJatWrJLrmyObl4xuHUxFC0iLiCAtIxp/cr5keuKZnRW35sTyGe92Mw862y+LntcXzf8b4krIH4pWx53D0TizJ9FmF60yc48PnHaJeQF6T4+QOXYcJ7leS81QRXdVGTJ6fxPgHfEM8z21Fzxcvof+kLrJnxEEMSx8NciGe6nri3ejcWtcqPLe/nQL0VzbF69yK0wrdoXWY93r78LYKkXou3Ai1noiPvfvrpJ/mkeHoMpkmalMHbNy+N19qPvXPGilYSbNq0KVkP2pXNycTz+gI0K7EGHY6vxtv5pd7k951QrXUmfO0gnj833YDQKlLpVyIweXoGvLt2ClrlJ2GtgpnNf8bJQXRRCkfGokyzkxhDfpbykjJDp2pDUWD5Xoyvoc7ZrurirfbD5Woj4DPiGZppDYKrf1M/iv4AABdLSURBVIWArd1wrEhUwiOdK/G0TzoAdLOWODEUT+RnP7rpgoEF2+F0yE2bT4RTO04okYCSkDoGM968rmxOJp6RIUg3pjTObA+FbQT06THPyQ+botwLNiqvj1yHfvLZ1E78SHlFBCb42RY/MiQdplW5jJ+6k5qKB1d1Ec+RUxiBgO+Ip3RXHZhUDv1OV0eWOf9Bf7lXQjfZVFSL3YCu0tbju+emoXWxEw7XzCGe1JAcJ5ToEZ4mlGhJEAUz3ryubE4mnlvDkDPkP/hh36eolTmlH1OOeTredk7Ek/IaWxB7V4eiqJSX1CgwrXUVXBoSh/BX1N2yruqiLldO5W0CPiWeiF2HbjWbY94fPbFeFs+DmFU7CKvqTUKIP/AwZjkG98+OLxOF1TziaW9IjhNKNJlEC9LpfUdm21vtSnCSiafk19DXx+F2j/fRTDoE/2HMekwYnR7jrzsZ80x2xzkRTymvIW2+wJ/tu8t5UZuZszQf+q4ca/usIriqi4osOYkBCFhcPA9hTvvv4TdlJJokNPxDc9pj4sYGGLi0OyqSAw7NQfuJG2VXvNS5MwouvIwA+Rql3Zfwt3QPRQ7HgMutsLQ7pYpF5PCZQK+kfA3gy0QTHCeU6HANmpm3mniSP2aiF0YmOFb2z8LTCX4ciOq79iHfSPIj+WoALrdaCtl1yUIqfnRoExS9wUBnaZV7nMVTOSszxbS4eJrJFe631XFCiRbW06y2swkl95esPUcrCY6V6qLds9bJgcXTOr5MtSZ089L7iOg1GzShRFs9jR6sJDhWqovR242e9rF46knbS2XRzXvjxg0MGzZM3qFEp9bPnj07cULJS2alWaynBIfO1tT7nFBP1cWIfvMlm1g8fcDbjjcvTSjR2tBjx47JWyPp2Dt6q6fRgicEh95TP3nyZJw5c8blrix38vBEXdxpH+eljgCLpzpupkqV8ualCSVatE47lGgMlJY10QHMRgpkc1oL69XY+vvvv2PWrFnyGQF6vhaDXvJntgk7NXx9LQ2Lpw94PLWeD00o0Z5zOsiYDjCmCSWjvKudXtPs7kBDF3PnzkWrVq1QrFgxd2efZn401szBWgRYPK3lT6e1cfXYuHLlSvnIuzt37sgvoaPzN60YqPdHJ1HRDwb1BjkwAS0EWDy10DNJWlfiSdWgHUr2CaWAgAB5QsnVae8mqX4yMxs3bowSJUo8dcKTGevCNnuXAIund/nrUroS8bQb4jihRL0zmlBK68R3XSrgxkJ69+6Nc+fOyYepcGACWgiweGqhZ5K0IuJJVUo5oTR9+nT5Xe1WCJ999hlmzJghz7gTFw5MQC0Bj4unJwb+1VbWbOnoVRbumMChyQo1s72OE0r02gyaUNJ7jaS7fbZmzRr5FcmnT5+WH985MAG1BDwqnu5eapJWJenlYj/88AM++ugjtSwMlY4eLanHR7uBypQpo9k2LRMkjhNKo0ePlieUtL5aWHOFVGZw/PhxeSx3/fr1aNJEPlqeAxNQRcCj4qnKIpWJlixZIi/+vnjxIrJlM8ur3dKu7Jtvvgkagzx69Kiqt2aqROk0meOEUsWKFeW1oTSxZLZAW1Rpxp1Om6JZdw5MQC0By4jnb7/9hldeeUUWGqvMEl+/fl1+tKRDPagXaoSwb98++Ufq0KFD6Nu3L6gnarYJJTrvtEKFCvIrkjkwAbUELCOeND5XpEgRyz2OzZ8/H++88478moq03lOktgGoSUcTSrTVkZY2Zc+eXRZ2Gkc0S+jWrZv0wrdYrFu3ziwms50GJGAZ8Xz8+DFefPFFeWlNz549DYhavUktWrQAjelSr9pI+9DpkA169I2IkA6NlsSTRNQME0q0EYB+lE6dOqXeKZzS5wlYRjzJk3RaUKNGjeRHSSsF6lWXK1dOnqgx4jY/Ek8SURoXJfb0OG/kCaXly5ejffv28nKlokWLWqmpcF10JGAp8aQJFhp/++abb3REqE9R9JhMWyhpbJd+JIwWaGsnPcaTnTTmTBNKRrSTuB04cACVK1fGhg0b8NprrxkNJdtjEgKWEk8SF3q0pfeEWzHUqVNH3n++d+9ew/bsHCeUqKdMPVEaFzVSuHnzpjwRN2LECNCOIw5MQA0BS4kn7R6hI8esOpZF457+/v6gF7vR2K5RQ8oJJVpcT4vsjRRq1KgB+kdthgMTUEPAUuK5YsUKBAcHy2s9zfKuHlGnhYeHy+dRUg/b/mph0Tz0iu84oUTbO2lCqXDhwnoVn2Y5nTp1AvVAaWMFByaghoClxJMWlFNvgsa0qIdmxUC9uipVqsiz7jT+aeSJGTt/xwmlIUOGyCfYe9tuemSniaMTJ05YsZlwnXQgYCnxvHz5srxc6fvvv8cbb7yhAz7vFEEL1ElAaeZdy7ZLPa13nFCiHjMdeefNCaXFixeja9eu8ox7oUKF9ETBZVmEgKXEk3xCj4W0v93qEwH06E4z2/T4bpRHYSX3hH1Cif6nCSVac+mNCSX7popFixbJQzw0nkwczbTYXwlvjuM5ApYTz9q1a4NmpemmtHKgPdo0NEGnLtHuIzMFGnqgt3jS0iYafqAJJXoNSMpAgubOcV3aVbRs2TJ5QpF67zTM4xiioqLQsGFDM6FkW71IwHLiSYuf//vf/4Iey6we7GO8tK61S5cupqsuTSjR8jI6tYleQEcTSnRoBwUSThq/pmVZ9u/cUUE6ScnZQci0PpjeceTtsVh31JHz0IeA5cSTHtl3796NLVu26EPQy6XQzh76oaDHdzNsjXSGi15AR/WgniFNKNFSLNoptnnzZrknSD1CdwX6waEdUPv370+WJU1iGXH3lrvqzfm4n4DlxJN6L/QYSOdh+kKgiRjauknHxNFEmVkD1YNehUxnwNIYJAmpPSxdutTpY73aulJPnQT03r17iVnQIclWnmRUy4rTpU7AcuJJy2Jomyat9cyXL59P+J4eQ+lxlNa5Gm0xuqgDaHcY9TodA43r0jvX3TmxRE8o9p4mHTa9detWPP/886LmcnwfJmA58aTHMTqkd8+ePfJyHl8JdGwdPf6SyJh5gwDVg048Shmop+jOM03px5XyXLt2rTzrT3vxOTABEQKWE8+rV6/Kaz3pUa9169YiLEwdl040KlWqlDzxYtaDUWhrbWrvjM+TJw/mzZuHpk2bus1P0dHR8ooFGuah151wYAIiBCwnnlR5mp2lCYjQ0FARFqaPS7PWNGRBvSkzvu2SJoiOHTuGuLg40DpMOkmf/tH4J83M07juzp073TojTr1cYmXm3rrpG65JK2BJ8axfv7585BjtA/e1QOJJC9Bp9t1sr8dw5SvqXVOdeDmRK1J8XQ8ClhTPzp07459//sF3332nB0NDlUE9NJp9N9J7j9QAypw5s5pkpktz9+5d09nMBtsIWFI8aa0g7brZsWOHT/rZ/t4jOjiEdlyZMaRLl07+AbRyyJAhA548eWLlKlq6bpYUT9r6N27cOFy4cAF0E/pioOU+1As9ePCgod57pNQX5DerC4sv1FGpv80Yz5LiSUt26KVptBylYMGCZvSLZpuN/t4jVxX0BWHxhTq68rOZr1tSPA8fPizPzG7fvh01a9Y0s3802W5/7xHtDyceZgq+ICy+UEcztTlRWy0pnn///be81nPu3Llo27atKBPLxKfTi+iEKTqBycjvPXIG3C3C8ugBbv/7H2TO9Az+Y0CvuqWOBqyXr5hkSfEk59GMM21VpHf90CMsrRX05uG73mpQ9vce0STa0KFD5RfI0Vmg3bp1M3RvVERYHt67gTv2uaX0mZAtawabWP4yANnH5seWnz5AhQzGk0+ROnqr/XC5qROwlHjaz2oksaQ97tTzIrGgQEt36OBbXwxjxozB2LFj5b3cEydOlCeSjL6QXqmw/Hv7GlaFlUT/iGdsrq3wESIj+qNSpv/KH/+Y3Rz9MB0/9ihiONcrraPhDGeDZAKWEk9aFP/hhx86da3RxcKT7ZF26RQpUiTxh4TKor3cqW2F9KQtSvNWJCyP7mB5l7zo7bcW1yfWt2W9aSACz/VCRLe8iL8ch6RVlM8gW54XkCU9RZJ+VP+6gUf/A+7e/RfPZMuDF7LAyXfp8ejOX7h6819b3plzwi97RtvfD+JxOc6eu2PeSmso3Xw+sKJAOQ3zxbSUeNK+9pCQENDxYo6Bxv02btyI//1Pult8LNCWTftZmY5Vp0d4eqe6UYMiYfk9HAH+5zH+wRdIfg4T1WozBhfugiX2Ct4vjC5r1mJo9axIj2hMq9UOe8rmxvYNJ1D5k81Y1fXR0991zoldk1qjzawzUhrgfuORODE1GDmfvY+4BX1QYsiveE4W48r4ZPMqdC0sRlNRHcWy5Ng6ErCUeBK39evXo2fPnqCXwdkDvSnRyO8595S/aZsmrfekbY0pA508b+QDRBQJS2QI0o0pjTPbQ2E7fz55eBgfgwvXH9i+3DIMJeZVT4hL4lkOY2r/hL8m1k1I9PR3Dw+PRfWuD/Dpd8GgV8RtGVYC29r/i28arkH7nLPR4OQGdNfw7jhFdfRU4+B8NROwnHgSkVGjRiWKJe3ioDMizbrTRquH6aCNBQsWyP/++uuvxOxoDzy9eteoQZGwbHwPmT4sgH0HPkLplBX5929sHdEGHSNiIT2RA9Ln83kG4YgstCSUwcCC7QhNVN2nv4ueVgslRlxCqXxyDnLwH/QTvs01Nk3RVspUUR2VZsbxdCdgSfGkmXXqfdI4Jx1htm7dOt3BGq1A6pGTgNoFk35MaPumUYMiYbkoHVFXKhItTs9DL7+stqr8ex1n/8qAYvEz4V81BuF3P0cD6evbOz/GK2H5sEJAPC/Oa4pSkcGIXdEWCbnbypBEO3NYLmzb/Qn8E+ap1HBUVEc1GXMaXQiYUjwPHDjgEg7NuNPL4OiQkF69ermMb/QIlSpVEjIxNUa0CmHGjBm4ffu2fLybN4KSuigTlktY+k4TfPRYGufuX8tWlUtRGHusNlbV24wSw+MR/ml70B6z7bMaY9SxodgpIJ64tBQdakaixpr+sOWeGQXKlETua/T9F/D7YjrayxvYEr7PIEZTWR3F8uTY+hEwpXhSo6tatapLSn/++Sdy5Mhhyr3djpWjU/FF93mnxejx48fymLCfn5/8plE9g9K6KBeWGCzrEYQpR+y1CMSU3YNA+8p2jK+GAREJ3wcGSrPwRdBpdjsUAKUZCQyfjXYF7OmcfQfELOuBoMTMy2PAKlua1L4XYam8jiK5cly9CJhWPJWICa3ztMLZj2puMjVp9Gh0Su1SGk8Pmz1Vhi/U0VPsjJCvpcXTCIDdYYOam0xNGnfY6ioPpXYpjeeqPCNf94U6Gpm/VttYPLUS1CG9mptMTRodqqJ4YbhR7XcnI1+oozt5GS0vFk+jecSJPWpuMjVp9ECh1C6l8fSw2VNl+EIdPcXOCPmyeBrBCy5sUHOTqUmjBwqldlG8lDvF9LBPzzJatmwpPBGop31cVtoEWDxN0EKUCo5jVdSksaW/ioOrryB/a3/kccHmTvQW7Je2JtYtnrSI3BVOpXYFBQW5ysoS11etWmWJevhiJSwunndweuM6HLzu4Npir6BtQD5dfP3nvu+wFdrLUyo4SsXzzumN2I1qaPCSM9GLREi6CAQ+mYUmiRn+iX3fbcXZFOxoB04wFmB70jYdl1zV1MVlphyBCXiBgMXFk7bc1cTiFxrjZXmLyG2c/PclhHbtipaNX06+a8QD8A/P64RwhGFR1wqaclcjOGmlSVv0nhbP2yc/Rfc35mBTgTAc+rUn8ifUhsVTk1s5sckJ+IB4Ou5hvoqosR3Rd35uTNz8LQL9gFsn1mP1nms2N5ZshC41pC9xCyfWr4b9a+kCGnWpAbqCyzsxP+pUgttzo2rrpij9HMXfhps5gFOnriF31dZoWvo5Oe9tqC3/LSXEzvkXka3qDexJyNgez1Ub8rh4Otap5D/YWfOAQ8/zFjYPaILZRdsBY1bjlQObECKDAJKLp61+L9o5JdQ36bMtjZq6uOLD15mANwj4mHgS4mMYX6ocDg6/ieVNL2LOsImIuv8ssklXLqV7FkOGTpPkbjXa9ZqN5/LbXx5XB+993QllcQnbQj/AR7HZUZYSoBjajhmIBrmph/s6Vpd9HSWf/ItibcdgYIPcKcSFenQTkHFqLdw/TuMIl3DlVhAmfN0dZUlb0whqBEd5zzN5nW4+H4/YiTnwsf2x/davCG3yDep9PxnPjaqLUWV+xpZeNi7JxTNlj9XZ4z+Lpzduci7TMwR8UDyByJB0mFHzGhYXGI1KPWMRHFYfL0h8jy/pjau947Gi/EyUeTcGfTu8iWa96uJFO/uLM1Cn2i58cGQhAilBYiDxrIMVHX/Btl5lkr5NNiZIYhKGDL9uxuf15dIwocwbeLDwLEZU9qJ4pqjTX5veQ71X/0F4gnjelA7BaLrgVUQsDMQLxydIXB5h6Y9DUV768WDx9MxNybmag4APiucFfFmrBmLCr6DbHunIsTm58N6rhRO9VaT1UPSv+xe+C52FHdLo3kvFnsVjqc/Z8r1XUSjV8yOdHXHmSlxsIh4R+ASzkmZmnLYaj/Y8n6qTY4/xApYH1cfH6CgxySXZ9rvEZQP8ow7gi4bZWTzNcY+zlR4i4HPi+UdUD3To8hiDD89DjZ1dUWGcP7bt7Afnb7g5iZVhkzBj6Qm02rYT/a4Ohl/7eHxzcAZey56y55nyfEhn4jkKefdHYmQlKXH8AQxv0gIPp1zGuOpe7HnuSl6n+APD0aRyLD6hnucf01Gj9vco3b4SpOFcW/gjCqvyTMLBGa/h+lM961Eoe07iJMFMlo9D9dT8EHio7XO2TEATAR8Qz4bYWKsXauW0cTp1bj9yVwzFh71qIWfcdoxrOxnRjapJU0IU/NCgZ0cUO7sYX2+0n0Qfh+07zqPLp8vROhfF/wi7Kr2RkJ8tfkAOpT3PQXg09R28JL0KGFLZO85Lx6nNTLItNU+qERzFY54yg6Q6Zcx4HWsn3cIHMbNQ8vPqeOXwUBye2xwJ+CSA4ajY+CwmHpyJYgsdlyqdwuq32uLTLO3RSoKZMeNpfNM/PcYnW/LEY56a7lZObCgCFhfPOOz8eirWX3JgHtAJo1u+lPhF3M6vMTUxQkE07d8TL512/E6K6pDGWfwaOakcabFzUE/USFQZSR+lvFchCD3lL22Pw7V3VMbphPICOo2GgympNgx3i2dyu2x22hkUbNoJ5Y7+jpw9WwJrhmFz7v4J9tvNOy19vRm5Ezgl1U+6fnoNhi3aJ0csKB1CnWf9NZQa3RJJtFk8DXX3szGaCFhcPDWxcXNi57PPSgpxt3gqKdNTcdTUxVO2cL5MQAsBFk8t9ITSnsX6sadQckhTaYGTWFAjOGrSiFmlLrZR7VJXG07lywRYPE3gfTWCoyaNHiiMapcedecyrEWAxdME/lQjOGrS6IHCqHbpUXcuw1oEWDxN4E81gqMmjR4ojGqXHnXnMqxFgMXTBP5UIzhq0uiBwqh26VF3LsNaBEwrnt27d7eWJ9KozZw5c4QPzTWqSBnVLp9pTFxRtxEwpXguWLDAbQDMklFwsLSDSSCQSImmEchedVTynZI3n6ougBMyAZ0ImFI8dWJj6mKWLFliWPs7dOhgWNvYMCaglACLp1JSHI8JMAEm4ECAxZObAxNgAkxABQEWTxXQOAkTYAJMgMWT2wATYAJMQAUBFk8V0DgJE2ACTIDFk9sAE2ACTEAFARZPFdA4CRNgAkyAxZPbABNgAkxABQEWTxXQOAkTYAJMgMWT2wATYAJMQAUBFk8V0DgJE2ACTIDFk9sAE2ACTEAFARZPFdA4CRNgAkyAxZPbABNgAkxABQEWTxXQOAkTYAJMgMWT2wATYAJMQAUBFk8V0DgJE2ACTIDFk9sAE2ACTEAFARZPFdA4CRNgAkyAxZPbABNgAkxABQEWTxXQOAkTYAJMgMWT2wATYAJMQAWB/wcuP4Qg+aFVegAAAABJRU5ErkJggg==;" vertex="1" parent="1">
          <mxGeometry x="900" y="250" width="335" height="245" as="geometry" />
        </mxCell>
        <mxCell id="BGrVTVoPzo42Mm0vaw1O-45" style="edgeStyle=orthogonalEdgeStyle;rounded=0;orthogonalLoop=1;jettySize=auto;html=1;exitX=0.75;exitY=1;exitDx=0;exitDy=0;entryX=0;entryY=0.5;entryDx=0;entryDy=0;" edge="1" parent="1" source="BGrVTVoPzo42Mm0vaw1O-32" target="BGrVTVoPzo42Mm0vaw1O-42">
          <mxGeometry relative="1" as="geometry" />
        </mxCell>
        <mxCell id="BGrVTVoPzo42Mm0vaw1O-32" value="" style="rounded=0;whiteSpace=wrap;html=1;" vertex="1" parent="1">
          <mxGeometry x="95" y="35" width="260" height="400" as="geometry" />
        </mxCell>
        <mxCell id="BGrVTVoPzo42Mm0vaw1O-46" style="edgeStyle=orthogonalEdgeStyle;rounded=0;orthogonalLoop=1;jettySize=auto;html=1;exitX=0.75;exitY=1;exitDx=0;exitDy=0;entryX=0;entryY=0.5;entryDx=0;entryDy=0;" edge="1" parent="1" source="BGrVTVoPzo42Mm0vaw1O-33" target="BGrVTVoPzo42Mm0vaw1O-41">
          <mxGeometry relative="1" as="geometry" />
        </mxCell>
        <mxCell id="BGrVTVoPzo42Mm0vaw1O-49" style="edgeStyle=orthogonalEdgeStyle;rounded=0;orthogonalLoop=1;jettySize=auto;html=1;exitX=1;exitY=0.75;exitDx=0;exitDy=0;entryX=0;entryY=0.5;entryDx=0;entryDy=0;" edge="1" parent="1" source="BGrVTVoPzo42Mm0vaw1O-33" target="BGrVTVoPzo42Mm0vaw1O-40">
          <mxGeometry relative="1" as="geometry" />
        </mxCell>
        <mxCell id="BGrVTVoPzo42Mm0vaw1O-33" value="" style="rounded=0;whiteSpace=wrap;html=1;" vertex="1" parent="1">
          <mxGeometry x="130" y="60" width="190" height="280" as="geometry" />
        </mxCell>
        <mxCell id="BGrVTVoPzo42Mm0vaw1O-34" value="&lt;font style=&quot;font-size: 20px;&quot;&gt;NUM&lt;font style=&quot;font-size: 20px;&quot;&gt;&lt;br&gt;&lt;/font&gt;&lt;/font&gt;" style="text;html=1;align=center;verticalAlign=middle;resizable=0;points=[];autosize=1;strokeColor=none;fillColor=none;" vertex="1" parent="1">
          <mxGeometry x="190" y="375" width="70" height="40" as="geometry" />
        </mxCell>
        <mxCell id="BGrVTVoPzo42Mm0vaw1O-51" style="edgeStyle=orthogonalEdgeStyle;rounded=0;orthogonalLoop=1;jettySize=auto;html=1;exitX=1;exitY=0.5;exitDx=0;exitDy=0;" edge="1" parent="1" source="BGrVTVoPzo42Mm0vaw1O-35" target="BGrVTVoPzo42Mm0vaw1O-37">
          <mxGeometry relative="1" as="geometry" />
        </mxCell>
        <mxCell id="BGrVTVoPzo42Mm0vaw1O-52" style="edgeStyle=orthogonalEdgeStyle;rounded=0;orthogonalLoop=1;jettySize=auto;html=1;exitX=1;exitY=0.75;exitDx=0;exitDy=0;entryX=0;entryY=0.75;entryDx=0;entryDy=0;" edge="1" parent="1" source="BGrVTVoPzo42Mm0vaw1O-35" target="BGrVTVoPzo42Mm0vaw1O-38">
          <mxGeometry relative="1" as="geometry" />
        </mxCell>
        <mxCell id="BGrVTVoPzo42Mm0vaw1O-35" value="&lt;font style=&quot;font-size: 20px;&quot;&gt;ANY&lt;br&gt;&lt;/font&gt;" style="whiteSpace=wrap;html=1;" vertex="1" parent="1">
          <mxGeometry x="165" y="80" width="120" height="60" as="geometry" />
        </mxCell>
        <mxCell id="BGrVTVoPzo42Mm0vaw1O-50" style="edgeStyle=orthogonalEdgeStyle;rounded=0;orthogonalLoop=1;jettySize=auto;html=1;exitX=1;exitY=0.5;exitDx=0;exitDy=0;entryX=0;entryY=0.5;entryDx=0;entryDy=0;" edge="1" parent="1" source="BGrVTVoPzo42Mm0vaw1O-36" target="BGrVTVoPzo42Mm0vaw1O-39">
          <mxGeometry relative="1" as="geometry" />
        </mxCell>
        <mxCell id="BGrVTVoPzo42Mm0vaw1O-36" value="&lt;font style=&quot;font-size: 20px;&quot;&gt;MODUL&lt;br&gt;&lt;/font&gt;" style="whiteSpace=wrap;html=1;" vertex="1" parent="1">
          <mxGeometry x="165" y="222.5" width="120" height="60" as="geometry" />
        </mxCell>
        <mxCell id="BGrVTVoPzo42Mm0vaw1O-37" value="&lt;font style=&quot;font-size: 20px;&quot;&gt;DATAINI&lt;/font&gt;" style="whiteSpace=wrap;html=1;" vertex="1" parent="1">
          <mxGeometry x="440" y="20" width="120" height="60" as="geometry" />
        </mxCell>
        <mxCell id="BGrVTVoPzo42Mm0vaw1O-38" value="&lt;font style=&quot;font-size: 20px;&quot;&gt;DATALLIU&lt;/font&gt;" style="whiteSpace=wrap;html=1;" vertex="1" parent="1">
          <mxGeometry x="440" y="100" width="120" height="60" as="geometry" />
        </mxCell>
        <mxCell id="BGrVTVoPzo42Mm0vaw1O-39" value="&lt;font style=&quot;font-size: 18px;&quot;&gt;NOMMODUL&lt;/font&gt;" style="whiteSpace=wrap;html=1;" vertex="1" parent="1">
          <mxGeometry x="440" y="180" width="120" height="60" as="geometry" />
        </mxCell>
        <mxCell id="BGrVTVoPzo42Mm0vaw1O-47" style="edgeStyle=orthogonalEdgeStyle;rounded=0;orthogonalLoop=1;jettySize=auto;html=1;exitX=0.5;exitY=1;exitDx=0;exitDy=0;" edge="1" parent="1" source="BGrVTVoPzo42Mm0vaw1O-40" target="BGrVTVoPzo42Mm0vaw1O-41">
          <mxGeometry relative="1" as="geometry" />
        </mxCell>
        <mxCell id="BGrVTVoPzo42Mm0vaw1O-40" value="&lt;font style=&quot;font-size: 20px;&quot;&gt;IDPRO&lt;/font&gt;" style="whiteSpace=wrap;html=1;" vertex="1" parent="1">
          <mxGeometry x="440" y="260" width="120" height="60" as="geometry" />
        </mxCell>
        <mxCell id="BGrVTVoPzo42Mm0vaw1O-41" value="&lt;font style=&quot;font-size: 20px;&quot;&gt;CÁRREC&lt;/font&gt;" style="whiteSpace=wrap;html=1;" vertex="1" parent="1">
          <mxGeometry x="570" y="375" width="120" height="60" as="geometry" />
        </mxCell>
        <mxCell id="BGrVTVoPzo42Mm0vaw1O-42" value="&lt;font style=&quot;font-size: 20px;&quot;&gt;IDALU&lt;/font&gt;" style="whiteSpace=wrap;html=1;" vertex="1" parent="1">
          <mxGeometry x="380" y="495" width="120" height="60" as="geometry" />
        </mxCell>
        <mxCell id="BGrVTVoPzo42Mm0vaw1O-43" value="&lt;font style=&quot;font-size: 20px;&quot;&gt;DESCRIP&lt;/font&gt;" style="whiteSpace=wrap;html=1;" vertex="1" parent="1">
          <mxGeometry x="130" y="510" width="120" height="60" as="geometry" />
        </mxCell>
        <mxCell id="BGrVTVoPzo42Mm0vaw1O-44" style="edgeStyle=orthogonalEdgeStyle;rounded=0;orthogonalLoop=1;jettySize=auto;html=1;exitX=0.25;exitY=1;exitDx=0;exitDy=0;entryX=0.368;entryY=0.036;entryDx=0;entryDy=0;entryPerimeter=0;" edge="1" parent="1" source="BGrVTVoPzo42Mm0vaw1O-32" target="BGrVTVoPzo42Mm0vaw1O-43">
          <mxGeometry relative="1" as="geometry" />
        </mxCell>
      </root>
    </mxGraphModel>
  </diagram>
</mxfile>
